<svg width="40" height="40" viewBox="0 0 40 40" fill="none" xmlns="http://www.w3.org/2000/svg">
<path d="M38.9814 11.0636L28.9362 1.01833C27.5779 -0.33977 25.3681 -0.33977 24.01 1.01833L13.9648 11.0636C12.6066 12.4218 12.6066 14.6316 13.9648 15.9898L16.802 18.827H3.48335C1.56264 18.827 0 20.3897 0 22.3104V36.5164C0 38.4371 1.56264 39.9998 3.48335 39.9998H17.6894C19.6101 39.9998 21.1727 38.4371 21.1727 36.5164V23.1978L24.01 26.035C24.689 26.7141 25.5811 27.0536 26.473 27.0536C27.365 27.0536 28.2571 26.7141 28.9361 26.035L38.9813 15.9898C40.3396 14.6316 40.3396 12.4218 38.9814 11.0636ZM18.8289 36.5164C18.8289 37.1447 18.3177 37.6559 17.6894 37.6559H3.48335C2.85504 37.6559 2.34385 37.1447 2.34385 36.5164V22.3104C2.34385 21.6821 2.85504 21.1709 3.48335 21.1709H17.6894C18.3177 21.1709 18.8289 21.6821 18.8289 22.3104V36.5164ZM37.3241 14.3325L27.2789 24.3776C27.0636 24.5928 26.7774 24.7114 26.4731 24.7114C26.1688 24.7114 25.8825 24.5928 25.6674 24.3776L15.6221 14.3325C15.4069 14.1172 15.2884 13.8311 15.2884 13.5267C15.2884 13.2223 15.407 12.9362 15.6221 12.721L25.6673 2.67574C25.8895 2.45355 26.1812 2.34253 26.473 2.34253C26.7648 2.34253 27.0567 2.45363 27.2788 2.67574L37.324 12.7209C37.5392 12.9362 37.6576 13.2223 37.6576 13.5267C37.6576 13.831 37.5393 14.1172 37.3241 14.3325Z" fill="#2D5A61"/>
<path d="M5.87896 23.5345C5.26597 23.5345 4.67868 24.0736 4.70704 24.7065C4.73548 25.3414 5.22198 25.8784 5.87896 25.8784C6.49196 25.8784 7.07925 25.3394 7.05089 24.7065C7.02245 24.0715 6.53595 23.5345 5.87896 23.5345Z" fill="#2D5A61"/>
<path d="M10.5865 23.5345C9.97349 23.5345 9.3862 24.0736 9.41456 24.7065C9.443 25.3414 9.9295 25.8784 10.5865 25.8784C11.1995 25.8784 11.7868 25.3394 11.7584 24.7065C11.73 24.0715 11.2435 23.5345 10.5865 23.5345Z" fill="#2D5A61"/>
<path d="M15.2935 23.5345C14.6805 23.5345 14.0932 24.0736 14.1216 24.7065C14.15 25.3414 14.6365 25.8784 15.2935 25.8784C15.9065 25.8784 16.4938 25.3394 16.4654 24.7065C16.437 24.0715 15.9505 23.5345 15.2935 23.5345Z" fill="#2D5A61"/>
<path d="M5.87896 28.2417C5.26597 28.2417 4.67868 28.7807 4.70704 29.4136C4.73548 30.0486 5.22198 30.5855 5.87896 30.5855C6.49196 30.5855 7.07925 30.0465 7.05089 29.4136C7.02245 28.7787 6.53595 28.2417 5.87896 28.2417Z" fill="#2D5A61"/>
<path d="M10.5865 28.2417C9.97349 28.2417 9.3862 28.7807 9.41456 29.4136C9.443 30.0486 9.9295 30.5855 10.5865 30.5855C11.1995 30.5855 11.7868 30.0465 11.7584 29.4136C11.73 28.7787 11.2435 28.2417 10.5865 28.2417Z" fill="#2D5A61"/>
<path d="M15.2935 28.2417C14.6805 28.2417 14.0932 28.7807 14.1216 29.4136C14.15 30.0486 14.6365 30.5855 15.2935 30.5855C15.9065 30.5855 16.4938 30.0465 16.4654 29.4136C16.437 28.7787 15.9505 28.2417 15.2935 28.2417Z" fill="#2D5A61"/>
<path d="M5.87896 32.949C5.26597 32.949 4.67868 33.488 4.70704 34.1209C4.73548 34.7558 5.22198 35.2928 5.87896 35.2928C6.49196 35.2928 7.07925 34.7538 7.05089 34.1209C7.02245 33.4859 6.53595 32.949 5.87896 32.949Z" fill="#2D5A61"/>
<path d="M10.5865 32.949C9.97349 32.949 9.3862 33.488 9.41456 34.1209C9.443 34.7558 9.9295 35.2928 10.5865 35.2928C11.1995 35.2928 11.7868 34.7538 11.7584 34.1209C11.73 33.4859 11.2435 32.949 10.5865 32.949Z" fill="#2D5A61"/>
<path d="M15.2935 32.949C14.6805 32.949 14.0932 33.488 14.1216 34.1209C14.15 34.7558 14.6365 35.2928 15.2935 35.2928C15.9065 35.2928 16.4938 34.7538 16.4654 34.1209C16.437 33.4859 15.9505 32.949 15.2935 32.949Z" fill="#2D5A61"/>
<path d="M26.4732 5.698C25.8602 5.698 25.2729 6.237 25.3013 6.86992C25.3297 7.50487 25.8162 8.04184 26.4732 8.04184C27.0862 8.04184 27.6735 7.50284 27.6451 6.86992C27.6167 6.23497 27.1302 5.698 26.4732 5.698Z" fill="#2D5A61"/>
<path d="M26.4732 12.355C25.8602 12.355 25.2729 12.894 25.3013 13.5269C25.3297 14.1619 25.8162 14.6988 26.4732 14.6988C27.0862 14.6988 27.6735 14.1598 27.6451 13.5269C27.6167 12.892 27.1302 12.355 26.4732 12.355Z" fill="#2D5A61"/>
<path d="M26.4732 19.0121C25.8602 19.0121 25.2729 19.5511 25.3013 20.184C25.3297 20.819 25.8162 21.3559 26.4732 21.3559C27.0862 21.3559 27.6735 20.8169 27.6451 20.184C27.6167 19.5491 27.1302 19.0121 26.4732 19.0121Z" fill="#2D5A61"/>
</svg>
